name rise30.3154peak39.0474fall46.5389.mot
datacolumns 19
datarows 18
range 3.84832700000000 3.87665500000000
endheader
time	ground_force1_vx	ground_force1_vy	ground_force1_vz	ground_force1_px	ground_force1_py	ground_force1_pz	ground_force2_vx	ground_force2_vy	ground_force2_vz	ground_force2_px	ground_force2_py	ground_force2_pz	ground_torque1_x	ground_torque1_y	ground_torque1_z	ground_torque2_x	ground_torque2_y	ground_torque2_z	
3.84832700000000	66.48915300000000	785.33944799999995	67.01812500000000	0.31570900000000	0.00000000000000	0.12361200000000	0.00000000000000	0.00000000000000	0.00000000000000	0.00000000000000	0.00000000000000	0.00000000000000	0.00000000000000	25.86890700000000	0.00000000000000	0.00000000000000	0.00000000000000	0.00000000000000	
3.84998500000000	65.64916599999999	786.55334700000003	66.94665600000000	0.31461400000000	0.00000000000000	0.12363200000000	0.00000000000000	0.00000000000000	0.00000000000000	0.00000000000000	0.00000000000000	0.00000000000000	0.00000000000000	25.86911700000000	0.00000000000000	0.00000000000000	0.00000000000000	0.00000000000000	
3.85165500000000	64.80993599999999	787.62994600000002	66.86405499999999	0.31353700000000	0.00000000000000	0.12365000000000	0.00000000000000	0.00000000000000	0.00000000000000	0.00000000000000	0.00000000000000	0.00000000000000	0.00000000000000	25.86469700000000	0.00000000000000	0.00000000000000	0.00000000000000	0.00000000000000	
3.85332200000000	63.97259100000000	788.57049700000005	66.77081000000000	0.31247800000000	0.00000000000000	0.12366900000000	0.00000000000000	0.00000000000000	0.00000000000000	0.00000000000000	0.00000000000000	0.00000000000000	0.00000000000000	25.85578300000000	0.00000000000000	0.00000000000000	0.00000000000000	0.00000000000000	
3.85498800000000	63.13816600000000	789.37639400000000	66.66736899999999	0.31143700000000	0.00000000000000	0.12368600000000	0.00000000000000	0.00000000000000	0.00000000000000	0.00000000000000	0.00000000000000	0.00000000000000	0.00000000000000	25.84249000000000	0.00000000000000	0.00000000000000	0.00000000000000	0.00000000000000	
3.85665300000000	62.30760000000000	790.04917599999999	66.55413799999999	0.31041300000000	0.00000000000000	0.12370400000000	0.00000000000000	0.00000000000000	0.00000000000000	0.00000000000000	0.00000000000000	0.00000000000000	0.00000000000000	25.82491300000000	0.00000000000000	0.00000000000000	0.00000000000000	0.00000000000000	
3.85832000000000	61.48174100000000	790.59052999999994	66.43148200000000	0.30940500000000	0.00000000000000	0.12372000000000	0.00000000000000	0.00000000000000	0.00000000000000	0.00000000000000	0.00000000000000	0.00000000000000	0.00000000000000	25.80312500000000	0.00000000000000	0.00000000000000	0.00000000000000	0.00000000000000	
3.85998600000000	60.66134700000000	791.00229500000000	66.29972600000001	0.30841400000000	0.00000000000000	0.12373600000000	0.00000000000000	0.00000000000000	0.00000000000000	0.00000000000000	0.00000000000000	0.00000000000000	0.00000000000000	25.77718400000000	0.00000000000000	0.00000000000000	0.00000000000000	0.00000000000000	
3.86165600000000	59.84708600000000	791.28646100000003	66.15916000000000	0.30743700000000	0.00000000000000	0.12375200000000	0.00000000000000	0.00000000000000	0.00000000000000	0.00000000000000	0.00000000000000	0.00000000000000	0.00000000000000	25.74712800000000	0.00000000000000	0.00000000000000	0.00000000000000	0.00000000000000	
3.86332600000000	59.03954400000000	791.44516899999996	66.01003900000001	0.30647400000000	0.00000000000000	0.12376700000000	0.00000000000000	0.00000000000000	0.00000000000000	0.00000000000000	0.00000000000000	0.00000000000000	0.00000000000000	25.71298300000000	0.00000000000000	0.00000000000000	0.00000000000000	0.00000000000000	
3.86498700000000	58.23921900000000	791.48071600000003	65.85258700000000	0.30552500000000	0.00000000000000	0.12378100000000	0.00000000000000	0.00000000000000	0.00000000000000	0.00000000000000	0.00000000000000	0.00000000000000	0.00000000000000	25.67475800000000	0.00000000000000	0.00000000000000	0.00000000000000	0.00000000000000	
3.86665800000000	57.44653300000000	791.39554799999996	65.68699599999999	0.30458700000000	0.00000000000000	0.12379400000000	0.00000000000000	0.00000000000000	0.00000000000000	0.00000000000000	0.00000000000000	0.00000000000000	0.00000000000000	25.63245300000000	0.00000000000000	0.00000000000000	0.00000000000000	0.00000000000000	
3.86831900000000	56.66183300000000	791.19226400000002	65.51343500000000	0.30366100000000	0.00000000000000	0.12380700000000	0.00000000000000	0.00000000000000	0.00000000000000	0.00000000000000	0.00000000000000	0.00000000000000	0.00000000000000	25.58605700000000	0.00000000000000	0.00000000000000	0.00000000000000	0.00000000000000	
3.86999300000000	55.88539000000000	790.87360899999999	65.33204700000000	0.30274400000000	0.00000000000000	0.12382000000000	0.00000000000000	0.00000000000000	0.00000000000000	0.00000000000000	0.00000000000000	0.00000000000000	0.00000000000000	25.53554800000000	0.00000000000000	0.00000000000000	0.00000000000000	0.00000000000000	
3.87166800000000	55.11741100000000	790.44247700000005	65.14295300000001	0.30183600000000	0.00000000000000	0.12383100000000	0.00000000000000	0.00000000000000	0.00000000000000	0.00000000000000	0.00000000000000	0.00000000000000	0.00000000000000	25.48090000000000	0.00000000000000	0.00000000000000	0.00000000000000	0.00000000000000	
3.87331900000000	54.35803700000000	789.90189999999996	64.94625900000000	0.30093600000000	0.00000000000000	0.12384200000000	0.00000000000000	0.00000000000000	0.00000000000000	0.00000000000000	0.00000000000000	0.00000000000000	0.00000000000000	25.42208000000000	0.00000000000000	0.00000000000000	0.00000000000000	0.00000000000000	
3.87499300000000	53.60735200000000	789.25504999999998	64.74205499999999	0.30004200000000	0.00000000000000	0.12385200000000	0.00000000000000	0.00000000000000	0.00000000000000	0.00000000000000	0.00000000000000	0.00000000000000	0.00000000000000	25.35905400000000	0.00000000000000	0.00000000000000	0.00000000000000	0.00000000000000	
3.87665500000000	52.86538400000000	788.50523099999998	64.53041800000000	0.29915300000000	0.00000000000000	0.12386100000000	0.00000000000000	0.00000000000000	0.00000000000000	0.00000000000000	0.00000000000000	0.00000000000000	0.00000000000000	25.29178300000000	0.00000000000000	0.00000000000000	0.00000000000000	0.00000000000000	
